<svg id="CodelyTV_Logo_Dark"
     xmlns="http://www.w3.org/2000/svg"
     xmlns:xlink="http://www.w3.org/1999/xlink"
     width="40"
     height="40"
     viewBox="0 0 4861 4861">
    <defs>
        <style>
            .cls-1 {
              fill: #d3d3d3;
            }

            .cls-1, .cls-2 {
              fill-rule: evenodd;
            }

            .cls-2 {
              fill: #10fb7a;
            }

            #background {
              fill: #282828;
            }
        </style>
    </defs>
    <rect id="background" width="100%" height="100%" />
    <g id="logo">
        <path id="Codely"
              class="cls-1"
              d="M190.018,4098.86c-29.83,173.65,64.987,284.45,257.815,284.45,152.346,0,258.881-58.6,321.737-176.85,13.849-26.64,10.653-38.36-13.85-46.88l-57.529-22.37c-24.5-9.59-35.156-4.26-51.137,22.37-35.156,66.05-95.881,99.08-180.044,99.08-110.8,0-161.934-54.33-143.823-152.35l41.549-235.44c15.98-98.01,86.293-151.28,197.09-151.28,84.163,0,133.169,33.03,145.953,98.01,5.327,26.64,13.85,31.96,42.615,22.38l53.267-18.11c26.634-8.53,33.026-19.18,28.765-45.81C812.184,3655.67,729.086,3594.95,581,3594.95c-194.959,0-319.6,99.07-350.5,270.59Zm645.468,68.18c-22.373,133.17,53.267,216.27,209.874,216.27,158.74,0,255.68-73.51,280.19-206.68l27.7-157.67c22.37-135.3-51.14-219.47-208.81-219.47-156.609,0-256.752,76.71-281.255,209.88Zm367.544,3.2c-11.72,63.92-62.85,101.2-140.62,101.2s-115.062-37.28-103.343-101.2l27.7-157.68c11.719-64.98,61.794-101.21,139.564-101.21s116.12,36.23,104.4,101.21Zm209.77-13.85c-25.57,140.62,37.29,226.92,190.7,226.92a630.4,630.4,0,0,0,205.61-34.1c37.29-13.84,46.88-24.5,52.21-58.59l119.32-678.63c4.26-24.5-2.14-33.03-26.64-33.03h-58.59c-22.38,0-35.16,10.66-38.36,33.03l-36.22,201.35c-47.94-9.59-89.49-13.85-123.58-13.85q-222.12,0-258.88,210.94Zm332.39,90.55c-2.13,5.33-5.32,9.59-9.59,11.72-29.83,7.46-63.92,11.72-101.2,11.72-79.91,0-112.93-35.16-100.15-106.54l24.51-138.49c13.85-79.9,57.52-112.93,142.75-112.93,26.64,0,59.66,4.26,100.15,13.85Zm238.53-104.4q-20.775,105.465,28.77,172.58c33.02,45.81,90.55,68.19,173.65,68.19q170.985,0,249.29-99.08,27.165-33.555-3.2-54.33l-33.02-21.31c-22.37-15.98-34.09-11.72-56.46,12.78-30.9,37.29-76.71,55.4-137.44,55.4-79.9,0-115.05-37.29-103.33-106.53l6.39-37.29q73.5,12.78,131.04,12.78c156.6,0,242.9-45.81,261.01-148.08,11.72-58.6-2.13-106.54-40.49-143.82q-57.525-54.345-166.19-54.34c-158.74,0-261.01,76.71-286.58,216.27ZM2381.1,3983.8q-14.385,67.11-124.65,67.12-55.935,0-131.04-12.79l4.26-22.37c13.85-69.25,68.19-111.86,145.96-111.86S2390.69,3932.66,2381.1,3983.8Zm386.61-371.81c4.26-24.5-2.13-33.03-26.63-33.03h-57.53c-25.57,0-35.16,8.53-39.42,33.03L2517.35,4334.3c-5.33,24.5,1.07,33.03,26.64,33.03h57.52c24.51,0,34.1-8.53,39.42-33.03Zm472.96,203.48c-24.5,0-34.09,7.46-38.35,31.96l-67.12,381.4c-38.35,9.59-75.64,14.91-111.86,14.91-76.7,0-109.73-35.15-98.01-105.47l51.14-290.84c5.32-24.5-1.07-31.96-25.57-31.96h-58.6c-24.5,0-34.09,7.46-39.41,31.96l-49.01,285.52c-24.5,139.56,34.09,223.72,182.17,223.72,40.49,0,83.1-5.32,128.91-14.91l-8.52,50.07c-13.85,76.7-58.6,115.06-133.17,115.06q-78.3,0-102.27-54.34c-11.72-22.37-22.38-25.56-51.14-12.78l-41.55,20.24c-25.57,12.79-33.03,30.9-21.31,53.27,29.83,69.25,95.89,104.4,199.22,104.4,156.61,0,248.23-77.77,274.87-232.24l94.81-538.01c4.26-24.5-2.13-31.96-26.63-31.96h-58.6Z" />
        <path id="TV"
              class="cls-2"
              d="M3358.25,3567.93c-28.14,0-39.4,10.14-45.03,38.28l-10.13,55.17c-4.51,28.15,3.37,38.28,31.52,38.28h194.77l-111.46,629.35c-4.5,28.14,3.38,38.27,31.53,38.27h64.17c28.14,0,40.53-10.13,45.03-38.27l111.46-629.35h193.65c28.14,0,40.53-10.13,45.03-38.28l10.13-55.17c5.63-28.14-3.37-38.28-31.52-38.28H3358.25Zm1247.26,0c-46.16,0-58.54,5.63-72.05,33.78l-251.07,480.74c-18.01,33.77-34.9,73.18-49.53,118.21h-6.76c0,1.12-2.25-72.06-9.01-119.34l-79.93-479.61c-4.51-27.02-16.89-33.78-60.8-33.78h-56.29c-25.89,0-37.15,12.39-32.65,37.16l141.86,731.8c3.37,23.64,14.63,30.39,41.65,30.39h59.67c27.02,0,39.41-5.63,52.92-31.52l398.55-730.67c13.51-24.77,6.75-37.16-19.14-37.16h-57.42Z" />
        <path id="curly_braces"
              class="cls-2"
              d="M1227.59,341.009c-283.932,0-390.757,115.259-390.757,376.7v638.14q0,236.145-185.54,236.14H628.8q-67.47,0-67.469,84.34v160.24c0,64.66,16.867,87.15,70.28,87.15h19.678q185.539,0,185.54,236.14v626.89c0,267.07,104.014,373.89,393.567,373.89h140.56c64.66,0,87.15-22.49,87.15-87.14V2952.62c0-64.66-22.49-87.15-87.15-87.15H1238.83c-61.84,0-92.77-33.74-92.77-98.39V2112.07c0-182.73-67.46-300.8-199.591-354.22,132.131-78.71,199.591-196.78,199.591-357.02V734.577c0-64.658,30.93-98.392,92.77-98.392h132.13c64.66,0,87.15-22.49,87.15-87.147V428.156c0-64.658-22.49-87.147-87.15-87.147H1227.59Zm2274.1,0c-64.66,0-84.34,22.489-84.34,87.147V549.038c0,64.657,19.68,87.147,84.34,87.147h132.13c64.65,0,95.58,33.734,95.58,98.392V1400.83c0,160.24,64.65,281.12,196.78,357.02-132.13,50.61-196.78,168.68-196.78,354.22v655.01c0,64.65-30.93,98.39-95.58,98.39H3501.69c-64.66,0-84.34,22.49-84.34,87.15V3073.5c0,64.65,19.68,87.14,84.34,87.14h140.56c289.55,0,393.57-106.82,393.57-373.89V2159.86q0-236.145,185.54-236.14h19.68c47.79,0,73.09-28.12,73.09-87.15V1676.33c0-56.22-22.49-84.34-70.28-84.34h-22.49q-185.55,0-185.54-236.14V717.71c0-261.442-106.83-376.7-387.95-376.7H3501.69Z" />
        <path id="Play"
              class="cls-1"
              d="M3017.11,1680.86l-913.72-575.61c-27.01-16.08-60.55-13.4-85.88-13.4-101.33,0-100.88,78.22-100.88,98.04V2366.37c0,16.75-.45,98.04,100.88,98.04,25.33,0,58.88,2.67,85.88-13.41l913.71-575.6c75-44.62,62.04-97.27,62.04-97.27S3092.11,1725.47,3017.11,1680.86Z" />
    </g>
</svg>
